<svg xmlns="http://www.w3.org/2000/svg" viewBox="0 0 65.75 19.5"><defs><style>.cls-1{fill:#fff;}</style></defs><title>brandlogo</title><g id="Layer_2" data-name="Layer 2"><g id="Layer_1-2" data-name="Layer 1"><path class="cls-1" d="M38.48,4.11V15.39H27.2V4.11H38.48M42.53.06H23.15V19.44H42.53V.06Z"/><path class="cls-1" d="M9.69,4.11A5.64,5.64,0,1,1,4.05,9.75,5.65,5.65,0,0,1,9.69,4.11m0-4.05h0A9.69,9.69,0,0,0,0,9.75H0a9.69,9.69,0,0,0,9.69,9.69h0a9.69,9.69,0,0,0,9.69-9.69h0A9.69,9.69,0,0,0,9.69.06Z"/><line class="cls-1" x1="64.32" y1="18.07" x2="47.68" y2="1.43"/><rect class="cls-1" x="53.97" y="-2.01" width="4.05" height="23.53" transform="translate(9.51 42.45) rotate(-45)"/><line class="cls-1" x1="64.32" y1="1.43" x2="47.68" y2="18.07"/><rect class="cls-1" x="44.23" y="7.73" width="23.53" height="4.05" transform="translate(9.51 42.45) rotate(-45)"/></g></g></svg>