<svg xmlns="http://www.w3.org/2000/svg" viewBox="0 0 260.17 260.17"><defs><style>.cls-1{fill:#fff;}</style></defs><title>Asset 1rock</title><g id="Layer_2" data-name="Layer 2"><g id="Layer_1-2" data-name="Layer 1"><circle class="cls-1" cx="130.08" cy="130.08" r="122.08" transform="translate(-53.88 130.08) rotate(-45)"/><path d="M130.08,16a114.08,114.08,0,0,1,80.67,194.75A114.08,114.08,0,0,1,49.41,49.41,113.37,113.37,0,0,1,130.08,16m0-16h0A130.08,130.08,0,0,0,0,130.08H0A130.08,130.08,0,0,0,130.08,260.17h0A130.09,130.09,0,0,0,260.17,130.08h0A130.08,130.08,0,0,0,130.08,0Z"/></g></g></svg>