<svg xmlns="http://www.w3.org/2000/svg" viewBox="0 0 151.31 44.84"><defs><style>.cls-1,.cls-2{fill:#fff;}.cls-2{stroke:#000;stroke-miterlimit:10;stroke-width:7px;}</style></defs><title>Asset 4symbols</title><g id="Layer_2" data-name="Layer 2"><g id="Layer_1-2" data-name="Layer 1"><rect class="cls-1" x="57.08" y="3.5" width="37.84" height="37.84"/><path d="M91.42,7V37.84H60.58V7H91.42m7-7H53.58V44.84H98.42V0Z"/><path class="cls-1" d="M22.42,41.34A18.92,18.92,0,1,1,41.34,22.42,18.94,18.94,0,0,1,22.42,41.34Z"/><path d="M22.42,7A15.42,15.42,0,1,1,7,22.42,15.44,15.44,0,0,1,22.42,7m0-7h0A22.42,22.42,0,0,0,0,22.42H0A22.42,22.42,0,0,0,22.42,44.84h0A22.42,22.42,0,0,0,44.84,22.42h0A22.42,22.42,0,0,0,22.42,0Z"/><line class="cls-2" x1="148.83" y1="41.67" x2="110.33" y2="3.17"/><line class="cls-2" x1="148.83" y1="3.17" x2="110.33" y2="41.67"/></g></g></svg>